<svg width="100" height="100" version="1.1" xmlns="http://www.w3.org/2000/svg" desc="Created with imagetracer.js version 1.2.6" ><path fill="rgb(241,231,231)" stroke="rgb(241,231,231)" stroke-width="1" opacity="1" d="M 74.5 16 L 73.5 18 L 74.5 16 Z " /><path fill="rgb(241,231,231)" stroke="rgb(241,231,231)" stroke-width="1" opacity="1" d="M 41.5 18 L 58.5 18 L 61 20.5 L 60.5 23 L 59.5 20 L 58 20.5 L 58.5 19 L 41.5 19 L 41.5 18 Z " /><path fill="rgb(241,231,231)" stroke="rgb(241,231,231)" stroke-width="1" opacity="1" d="M 37.5 24 L 41 24.5 L 37.5 25 L 37.5 24 Z " /><path fill="rgb(241,231,231)" stroke="rgb(241,231,231)" stroke-width="1" opacity="1" d="M 53.5 25 L 66.5 25 L 73 29.5 L 75 33.5 L 75 49.5 L 66.5 55 L 57.5 55 L 53 51.5 L 68.5 51 L 73 46.5 L 74 41.5 L 71 35 L 67.5 33 L 49 33 L 53.5 25 Z " /><path fill="rgb(209,194,225)" stroke="rgb(209,194,225)" stroke-width="1" opacity="1" d="M 73.5 21 L 74.5 23 L 73.5 21 Z " /><path fill="rgb(209,194,225)" stroke="rgb(209,194,225)" stroke-width="1" opacity="1" d="M 77.5 23 L 78 27.5 L 77 27.5 L 77.5 23 Z " /><path fill="rgb(209,194,225)" stroke="rgb(209,194,225)" stroke-width="1" opacity="1" d="M 33 25 L 53 25.5 L 49 33 L 33 33 L 33 25 Z " /><path fill="rgb(209,194,225)" stroke="rgb(209,194,225)" stroke-width="1" opacity="1" d="M 29.5 27 L 26.5 31 L 29.5 27 Z " /><path fill="rgb(209,194,225)" stroke="rgb(209,194,225)" stroke-width="1" opacity="1" d="M 38 38 L 40 38.5 L 40 46.5 L 39 46.5 L 38 38 Z " /><path fill="rgb(209,194,225)" stroke="rgb(209,194,225)" stroke-width="1" opacity="1" d="M 62 38 Q 64.7 36.9 64 39.5 L 65 42.5 L 63.5 47 Q 61.1 43.7 62 38 Z " /><path fill="rgb(209,194,225)" stroke="rgb(209,194,225)" stroke-width="1" opacity="1" d="M 74.5 50 L 75 60 L 77 60.5 L 75 61 Q 75.5 70.2 69.5 74 L 68.5 73 L 40.5 73 L 33 68.5 L 33 51 L 52.5 51 L 57.5 55 L 66.5 55 L 74.5 50 Z M 45 60 L 41 63 Q 41 66 44 67 L 57 67 L 59 65 L 58 61 Q 54 59 45 60 Z " /><path fill="rgb(209,194,225)" stroke="rgb(209,194,225)" stroke-width="1" opacity="1" d="M 24.5 61 L 25 63.5 L 24 63.5 L 24.5 61 Z " /><path fill="rgb(231,83,82)" stroke="rgb(231,83,82)" stroke-width="1" opacity="1" d="M 21 17 Q 24.8 16 26 18.5 Q 27.5 22.9 24.5 22 Q 22.8 24.8 21 20.5 L 21 17 Z " /><path fill="rgb(231,83,82)" stroke="rgb(231,83,82)" stroke-width="1" opacity="1" d="M 74 17 Q 77.8 16 79 18.5 Q 80.5 22.9 77.5 22 L 75.5 23 L 73 19.5 L 74 17 Z " /><path fill="rgb(231,83,82)" stroke="rgb(231,83,82)" stroke-width="1" opacity="1" d="M 40 19 L 58.5 19 L 60 20.5 Q 61.5 24.9 58.5 24 L 57.5 25 L 42.5 25 L 40 24 L 40 19 Z " /><path fill="rgb(231,83,82)" stroke="rgb(231,83,82)" stroke-width="1" opacity="1" d="M 23.5 26 L 25 39.5 L 24 40.5 L 24 60 L 21 58.5 L 21 40.5 L 23 37.5 L 23.5 26 Z " /><path fill="rgb(231,83,82)" stroke="rgb(231,83,82)" stroke-width="1" opacity="1" d="M 76.5 27 L 77 36.5 L 76 36.5 L 76.5 27 Z " /><path fill="rgb(231,83,82)" stroke="rgb(231,83,82)" stroke-width="1" opacity="1" d="M 78.5 52 L 79 57.5 L 78 60 Q 74 61.4 76 54.5 L 77 54.5 L 77.5 58 L 78.5 52 Z " /><path fill="rgb(187,151,178)" stroke="rgb(187,151,178)" stroke-width="1" opacity="1" d="M 22.5 23 L 23 32.5 L 22 32.5 L 22.5 23 Z " /><path fill="rgb(187,151,178)" stroke="rgb(187,151,178)" stroke-width="1" opacity="1" d="M 32.5 26 L 33 34 L 27 38.5 Q 25.5 46.5 29.5 49 L 33 51.5 L 33 68.5 L 35.5 71 L 40.5 73 L 69 73.5 L 66.5 75 L 33.5 75 L 27 70.5 L 25 66.5 L 25 33.5 L 30.5 27 L 32.5 26 Z " /><path fill="rgb(187,151,178)" stroke="rgb(187,151,178)" stroke-width="1" opacity="1" d="M 77.5 28 L 78 37.5 L 77 37.5 L 77.5 28 Z " /><path fill="rgb(187,151,178)" stroke="rgb(187,151,178)" stroke-width="1" opacity="1" d="M 62.5 37 L 62 38.5 L 63 47.5 L 61 46.5 L 61 38.5 L 62.5 37 Z " /><path fill="rgb(187,151,178)" stroke="rgb(187,151,178)" stroke-width="1" opacity="1" d="M 37.5 38 L 39 48 L 36 46.5 Q 34.3 39.8 37.5 38 Z " /><path fill="rgb(187,151,178)" stroke="rgb(187,151,178)" stroke-width="1" opacity="1" d="M 40.5 40 L 41 42.5 L 40 42.5 L 40.5 40 Z " /><path fill="rgb(187,151,178)" stroke="rgb(187,151,178)" stroke-width="1" opacity="1" d="M 79.5 41 L 80 56.5 L 79 56.5 L 79.5 41 Z " /><path fill="rgb(187,151,178)" stroke="rgb(187,151,178)" stroke-width="1" opacity="1" d="M 64.5 43 L 65 45.5 L 64 45.5 L 64.5 43 Z " /><path fill="rgb(187,151,178)" stroke="rgb(187,151,178)" stroke-width="1" opacity="1" d="M 71.5 47 L 69.5 50 L 71.5 47 Z " /><path fill="rgb(187,151,178)" stroke="rgb(187,151,178)" stroke-width="1" opacity="1" d="M 44.5 60 L 56 60.5 L 44.5 61 L 44.5 60 Z " /><path fill="rgb(187,151,178)" stroke="rgb(187,151,178)" stroke-width="1" opacity="1" d="M 42.5 61 L 42 62.5 L 41.5 65 L 41 62.5 L 42.5 61 Z " /><path fill="rgb(56,49,92)" stroke="rgb(56,49,92)" stroke-width="1" opacity="1" d="M 34.5 33 L 64.5 33 L 72 37.5 L 73 44.5 L 68.5 50 L 66.5 51 L 33.5 51 L 27 45.5 Q 25.6 36.1 31.5 34 L 34.5 33 Z M 63 37 L 61 39 L 61 47 Q 63 50 65 46 Q 67 39 63 37 Z M 38 38 Q 34 40 36 47 L 39 48 L 41 43 L 40 40 Q 41 37 38 38 Z " /><path fill="rgb(56,49,92)" stroke="rgb(56,49,92)" stroke-width="1" opacity="1" d="M 43.5 61 L 56.5 61 L 58 62.5 Q 59.5 66.9 56.5 66 L 55.5 67 L 43.5 67 Q 41.3 66.3 42 62.5 L 43.5 61 Z " /><path fill="rgb(245,107,137)" stroke="rgb(245,107,137)" stroke-width="1" opacity="1" d="M 25.5 17 L 27 19.5 L 26 19.5 L 25.5 18 L 24 18.5 L 25.5 17 Z " /><path fill="rgb(245,107,137)" stroke="rgb(245,107,137)" stroke-width="1" opacity="1" d="M 78.5 17 L 77.5 19 L 78.5 17 Z " /><path fill="rgb(245,107,137)" stroke="rgb(245,107,137)" stroke-width="1" opacity="1" d="M 21.5 21 Q 23.3 24.1 25 22.5 L 24.5 37 L 24 26.5 L 21.5 21 Z " /><path fill="rgb(245,107,137)" stroke="rgb(245,107,137)" stroke-width="1" opacity="1" d="M 77.5 22 L 77 23.5 L 76 36.5 L 79 39.5 L 79 51.5 Q 76.7 52.8 78 57.5 L 78.5 59 L 76.5 54 L 75.5 60 L 75 23 L 77.5 22 Z " /><path fill="rgb(245,107,137)" stroke="rgb(245,107,137)" stroke-width="1" opacity="1" d="M 22.5 33 L 23 37.5 L 22 37.5 L 22.5 33 Z " /><path fill="rgb(245,107,137)" stroke="rgb(245,107,137)" stroke-width="1" opacity="1" d="M 24.5 40 L 25 61 L 23 60.5 L 24 59.5 L 24.5 40 Z " /><path fill="rgb(245,107,137)" stroke="rgb(245,107,137)" stroke-width="1" opacity="1" d="M 20.5 41 L 21 56.5 L 20 56.5 L 20.5 41 Z " /><path fill="rgb(245,107,137)" stroke="rgb(245,107,137)" stroke-width="1" opacity="1" d="M 28.5 47 L 29.5 49 L 28.5 47 Z " /><path fill="rgb(255,255,255)" stroke="rgb(255,255,255)" stroke-width="1" opacity="1" d="M 0 0 L 100 0 L 100 100 L 0 100 L 0 0 Z M 23 16 L 20 19 L 22 23 L 22 38 L 20 41 L 20 59 L 24 61 Q 24 69 28 73 L 32 75 L 68 75 L 70 74 L 74 70 L 76 62 L 79 60 L 80 58 L 80 40 L 78 38 L 78 24 L 80 21 Q 81 17 78 16 Q 74 15 73 18 Q 72 23 75 24 L 75 33 L 73 30 L 67 25 L 60 25 L 61 23 Q 61 18 59 18 L 42 18 L 39 21 L 40 24 L 31 26 L 26 32 L 25 32 L 25 23 Q 28 21 27 17 L 23 16 Z " /></svg>